<svg width="235" height="231" viewBox="0 0 235 231" fill="none" xmlns="http://www.w3.org/2000/svg">
<rect width="235" height="231" rx="42" fill="white"/>
<path d="M101.394 18.3727C97.2644 19.0727 91.1944 20.4427 87.8944 21.4127C84.5944 22.3827 78.9744 24.4927 75.3944 26.1027C71.8144 27.7127 65.2944 31.4227 60.8944 34.3427C56.4944 37.2727 49.4044 43.3127 45.1444 47.7727C40.8844 52.2327 35.7344 58.4727 33.7044 61.6327C31.6844 64.7927 28.3344 70.9827 26.2644 75.3827C24.1944 79.7827 21.4744 87.4327 20.2244 92.3827C18.3044 99.9627 17.9544 103.903 18.0044 117.383C18.0544 131.243 18.4044 134.653 20.6044 142.883C21.9944 148.103 25.0144 156.203 27.2944 160.883C29.5744 165.563 32.2244 170.403 33.1744 171.663L34.8944 173.933C81.0044 126.623 94.3944 112.213 94.3944 111.383C94.3944 110.553 93.7244 109.213 92.8944 108.383C91.6744 107.163 88.1744 106.883 74.3944 106.883H57.3944C58.3144 101.073 59.6844 96.6827 61.0344 93.3827C62.3744 90.0827 64.7744 85.3527 66.3444 82.8827C67.9244 80.4127 72.4044 75.3427 76.3044 71.6327C80.6344 67.5127 86.1244 63.5227 90.3944 61.3827C94.2444 59.4627 99.9844 57.2027 103.144 56.3727C106.304 55.5527 112.944 54.8727 117.894 54.8727C122.844 54.8727 129.594 55.5627 132.894 56.4127C136.194 57.2527 142.044 59.4327 145.894 61.2427C149.744 63.0627 155.594 66.7827 158.894 69.5127C162.344 72.3727 167.154 77.8527 170.214 82.4327C173.204 86.9027 176.404 93.2327 177.514 96.8827C178.604 100.463 179.884 106.303 180.354 109.883C180.844 113.663 180.814 119.523 180.274 123.883C179.764 128.003 178.234 134.533 176.874 138.383C175.524 142.233 172.274 148.493 169.654 152.303C167.034 156.103 162.644 161.173 159.894 163.563C157.144 165.963 151.294 169.773 146.894 172.043C142.494 174.303 135.974 176.763 132.394 177.503C128.814 178.243 122.294 178.863 117.894 178.873C113.494 178.883 107.194 178.213 103.894 177.373C100.594 176.533 94.7444 174.333 90.8944 172.473C87.0444 170.613 81.3044 166.793 78.1444 163.983C74.9844 161.183 72.0544 158.883 71.6444 158.883C71.2344 158.873 65.0444 164.983 57.8944 172.443L44.8944 186.013C50.3144 191.543 55.7244 195.693 60.3944 198.803C65.0644 201.913 72.4944 205.953 76.8944 207.783C81.2944 209.623 88.2644 212.043 92.3944 213.173C98.4444 214.843 102.984 215.253 115.894 215.303C129.424 215.353 133.284 215.003 140.894 213.073C145.844 211.813 153.494 209.203 157.894 207.273C162.294 205.343 169.044 201.653 172.884 199.073C176.734 196.493 182.754 191.683 186.274 188.383C189.794 185.083 194.584 179.913 196.924 176.883C199.254 173.853 203.014 168.003 205.254 163.883C207.504 159.753 210.664 152.563 212.274 147.883C213.884 143.213 215.694 135.893 216.294 131.633C216.904 127.373 217.394 120.503 217.394 116.383C217.394 112.253 216.904 105.393 216.294 101.133C215.694 96.8727 213.884 89.5527 212.274 84.8827C210.664 80.2127 207.504 73.0027 205.254 68.8827C203.014 64.7527 199.264 58.9027 196.924 55.8827C194.594 52.8527 189.804 47.7227 186.284 44.4827C182.774 41.2327 177.194 36.7627 173.894 34.5327C170.594 32.3127 164.294 28.8127 159.894 26.7627C155.494 24.7027 148.294 22.1027 143.894 20.9727C139.494 19.8427 132.744 18.4627 128.894 17.9127C125.044 17.3727 118.974 16.9627 115.394 17.0027C111.814 17.0527 105.514 17.6627 101.394 18.3727Z" fill="url(#paint0_linear_297_44)"/>
<defs>
<linearGradient id="paint0_linear_297_44" x1="17.9994" y1="60.8887" x2="217.394" y2="171.415" gradientUnits="userSpaceOnUse">
<stop stop-color="#0F2528"/>
<stop offset="0.503" stop-color="#0F2528"/>
<stop offset="0.868" stop-color="#1D4B6F"/>
<stop offset="0.979" stop-color="#1D537E"/>
<stop offset="1" stop-color="#1D537E"/>
</linearGradient>
</defs>
</svg>
