<svg version="1.2" xmlns="http://www.w3.org/2000/svg" viewBox="0 0 720 200" width="720" height="200">
	<defs>
		<linearGradient id="g1" x2="1" gradientUnits="userSpaceOnUse" gradientTransform="matrix(199.395,110.526,-110.25,198.896,1.605,44.006)">
			<stop offset="0" stop-color="#0f2528"/>
			<stop offset=".503" stop-color="#0f2528"/>
			<stop offset=".868" stop-color="#1d4b6f"/>
			<stop offset=".979" stop-color="#1d537e"/>
			<stop offset="1" stop-color="#1d537e"/>
		</linearGradient>
	</defs>
	<style>
		.s0 { fill: #0f2428 } 
		.s1 { fill: url(#g1) } 
	</style>
	<path id="Color Fill 1" fill-rule="evenodd" class="s0" d="m243.19 41.82l23.65 0.41c19.83 0.35 24.55 0.72 29.16 2.3 3.93 1.35 7.1 3.47 11.08 7.43 3.89 3.85 6.1 7.06 7.27 10.54 0.92 2.75 1.74 7.92 1.82 11.5 0.08 3.96-0.58 8.65-1.69 12-1.25 3.78-3.41 7.16-6.9 10.8-3.48 3.63-6.82 5.97-10.58 7.41-4.28 1.64-8.72 2.23-34.5 3.29l-0.5 31.5h-19zm220.81 1.18h18v96h-18zm-201.34 16.18c-0.29 0.77-0.45 8.14-0.35 16.37l0.19 14.95c13.18 0.51 19.25 0.17 22-0.41 3.17-0.67 5.99-2.08 7.69-3.82 1.48-1.52 3.16-4 3.75-5.52 0.58-1.51 1.06-4.43 1.05-6.5-0.01-2.06-0.89-5.55-1.96-7.75-1.07-2.2-3.43-4.88-5.24-5.95-2.61-1.55-5.69-2.04-14.94-2.37-9.4-0.34-11.75-0.15-12.19 1zm91.34 8.1c8.26 0.22 10.28 0.65 15.46 3.24 3.28 1.64 7.2 4.56 8.73 6.48 1.65 2.1 3.18 5.71 3.8 9 0.57 3.03 1.03 16.19 1.01 53h-18l0.08-10.5-4.79 4.61c-2.81 2.7-6.44 5.08-8.79 5.74-2.2 0.63-6.25 1.14-9 1.14-2.75 0-6.68-0.44-8.75-0.99-2.06-0.55-5.39-2.46-7.41-4.25-2.01-1.78-4.48-5.05-5.48-7.25-1.1-2.43-1.81-6.35-1.82-10 0-4.36 0.6-7.07 2.23-9.95 1.23-2.18 3.81-5.01 5.73-6.29 1.93-1.29 5.08-2.79 7-3.35 1.93-0.55 9.71-1.32 31.1-2.41l-0.6-4c-0.34-2.2-1.15-5.01-1.8-6.24-0.66-1.24-2.21-2.7-3.45-3.25-1.23-0.55-4.91-1.01-8.17-1.01-5.23 0-6.28 0.36-9 3-1.69 1.65-3.08 3.68-3.08 4.5 0 0.98-0.97 1.5-2.75 1.5-1.51-0.01-5.11-0.35-8.01-0.75-4.58-0.65-5.26-1.04-5.25-3 0.01-1.23 0.74-3.71 1.63-5.5 0.89-1.78 2.58-4.3 3.75-5.59 1.17-1.29 3.48-3.05 5.13-3.92 1.65-0.86 4.8-2.17 7-2.89 2.47-0.82 7.64-1.23 13.5-1.07zm172.5-0.21c2.75-0.04 7.7 0.62 11 1.47 3.3 0.86 7.8 2.75 10 4.2 2.2 1.46 5.47 4.25 7.26 6.21 1.79 1.95 4.24 6.03 5.45 9.05 1.74 4.39 2.2 7.63 2.24 16.03 0.05 9.81-0.16 10.95-3.09 17-1.99 4.09-4.93 8.06-8 10.79-3.54 3.14-6.76 4.88-11.86 6.4-5.48 1.63-8.73 1.97-15 1.59-5.48-0.34-9.73-1.27-13.5-2.95-3.02-1.35-7.3-4.23-9.51-6.41-2.21-2.17-5.07-6.2-6.35-8.95-1.28-2.75-2.79-7.47-3.34-10.5-0.55-3.02-0.74-8.2-0.42-11.5 0.32-3.3 1.3-8.02 2.18-10.5 0.88-2.47 2.91-6.3 4.51-8.5 1.61-2.2 5.06-5.44 7.68-7.21 2.61-1.77 7.23-3.88 10.25-4.69 3.03-0.8 7.75-1.5 10.5-1.53zm81 0.28c5.79 0.25 9.53 1.03 13.5 2.81 3.03 1.35 7.45 4.24 9.84 6.4 2.38 2.17 5.42 6.31 6.75 9.19 1.33 2.89 2.81 8.29 3.29 12 0.53 4.02 0.51 9.18-0.04 12.75-0.51 3.3-1.95 8.25-3.2 11-1.25 2.75-4.04 6.72-6.2 8.82-2.17 2.1-6.19 4.93-8.94 6.29-3.47 1.72-7.44 2.66-13 3.08-5.01 0.37-10.05 0.13-13.5-0.66-3.02-0.69-7.3-2.29-9.5-3.56-2.2-1.26-5.66-4.03-7.7-6.13-2.03-2.11-4.61-5.86-5.72-8.34-1.12-2.47-2.38-7.42-2.82-11-0.44-3.57-0.5-9.2-0.14-12.5 0.36-3.3 1.78-8.25 3.15-11 1.36-2.75 3.78-6.52 5.36-8.38 1.58-1.86 4.9-4.55 7.37-5.98 2.48-1.43 6.53-3.16 9-3.86 2.56-0.72 7.96-1.12 12.5-0.93zm82-0.08c6.57 0.28 8.97 0.87 13.39 3.29 2.96 1.62 6.52 4.29 7.91 5.94 1.39 1.65 3.66 5.48 5.04 8.5 2 4.36 2.62 7.59 2.98 15.5 0.34 7.63 0.03 11.43-1.3 16-0.97 3.3-2.46 7.13-3.31 8.5-0.86 1.38-2.95 4.01-4.64 5.84-1.69 1.84-4.87 4.27-7.07 5.42-2.6 1.35-6.62 2.24-11.5 2.55-4.51 0.28-9.09-0.03-11.5-0.77-2.2-0.69-5.68-2.32-7.75-3.64-2.06-1.32-3.97-2.4-4.25-2.4-0.27 0-0.5 7.43-0.5 33h-18v-19.75c0-10.86 0.23-32.68 1.04-77.25h15.96l-0.03 9.5 3.27-3.19c1.79-1.76 5.29-4.14 7.76-5.29 3.67-1.71 5.99-2.03 12.5-1.75zm-285 1.67l6.24 17.28c3.43 9.51 7.41 20.88 8.84 25.28 1.44 4.4 2.92 7.55 3.3 7 0.38-0.55 4.27-11.91 16.62-49.51l8.75 0.01c4.82 0 8.76 0.12 8.78 0.25 0.01 0.14-4.89 13.98-10.89 30.75-6 16.78-13.66 38.27-23.14 65h-9.5c-5.22 0-9.5-0.22-9.5-0.5 0-0.27 2.02-6.01 4.48-12.75 2.47-6.73 4.5-12.7 4.53-13.25 0.02-0.55-6.04-16.18-13.48-34.75-7.44-18.56-13.53-33.97-13.53-34.25 0-0.27 4.17-0.51 18.5-0.56zm114.5 15.13c-1.92 1.12-4.5 3.47-5.72 5.23-1.22 1.76-2.64 5.45-3.15 8.2-0.57 3.03-0.58 7.37-0.03 11 0.5 3.3 1.72 7.35 2.71 9 0.99 1.65 3.36 4.03 5.25 5.28 2.51 1.66 4.87 2.27 8.69 2.25 2.89-0.01 6.49-0.66 8-1.43 1.52-0.77 3.74-2.46 4.95-3.75 1.21-1.29 2.91-4.37 3.77-6.85 0.87-2.47 1.57-6.75 1.57-9.5 0-2.75-0.7-7.02-1.57-9.5-0.86-2.47-2.56-5.57-3.77-6.87-1.21-1.31-3.66-3-5.45-3.75-1.78-0.76-5.16-1.37-7.5-1.35-2.4 0.01-5.76 0.9-7.75 2.04zm78.03-0.3c-1.91 0.96-4.02 2.65-4.69 3.74-0.67 1.1-1.92 3.68-2.78 5.74-0.93 2.24-1.55 6.67-1.54 11 0.01 5.51 0.55 8.32 2.25 11.66 1.23 2.43 3.58 5.35 5.23 6.5 2.35 1.64 4.53 2.09 10 2.09 5.5 0 7.65-0.45 10-2.1 1.65-1.15 3.88-3.85 4.96-6 1.18-2.36 2.1-6.66 2.34-10.9 0.22-3.85-0.13-8.8-0.77-11-0.64-2.2-1.92-4.94-2.85-6.09-0.92-1.15-3.25-3.06-5.18-4.24-2.36-1.46-5.13-2.16-8.5-2.16-2.78 0-6.54 0.78-8.47 1.76zm80.03 0.48c-3.08 1.59-5.06 3.58-6.73 6.75-1.89 3.59-2.37 6.03-2.36 12 0.01 5.79 0.53 8.52 2.27 11.95 1.25 2.44 3.54 5.36 5.1 6.5 1.77 1.28 4.79 2.17 8 2.37 3.62 0.21 6.21-0.25 8.66-1.57 2.38-1.28 4.39-3.63 6.27-7.31 2.04-4.01 2.76-6.87 2.74-10.94-0.01-3.02-0.47-7.18-1.01-9.25-0.55-2.06-2.23-5.17-3.75-6.91-1.51-1.74-4.21-3.77-6-4.5-1.78-0.74-4.5-1.34-6.03-1.34-1.53 0-4.75 1.02-7.16 2.25zm-335.31 25.29c-1.51 0.81-3.2 2.36-3.75 3.46-0.55 1.1-1 3.35-1 5q0 3 3 6c2.11 2.11 3.97 3 6.25 3 1.79 0 4.83-0.44 6.75-0.96 1.93-0.53 4.68-2.22 6.12-3.75 1.43-1.53 3.13-4.36 3.76-6.29 0.64-1.92 1.15-4.51 1.14-5.75-0.02-2.18-0.32-2.24-9.77-2.21-6.55 0.03-10.65 0.52-12.5 1.5z"/>
	<path id="Gradient Fill 1" class="s1" d="m85 1.49c-4.13 0.7-10.2 2.07-13.5 3.04-3.3 0.97-8.92 3.08-12.5 4.69-3.58 1.61-10.1 5.32-14.5 8.24-4.4 2.93-11.49 8.97-15.75 13.43-4.26 4.46-9.41 10.7-11.44 13.86-2.02 3.16-5.37 9.35-7.44 13.75-2.07 4.4-4.79 12.05-6.04 17-1.92 7.58-2.27 11.52-2.22 25 0.05 13.86 0.4 17.27 2.6 25.5 1.39 5.22 4.41 13.32 6.69 18 2.28 4.68 4.93 9.52 5.88 10.78l1.72 2.27c46.11-47.31 59.5-61.72 59.5-62.55 0-0.83-0.67-2.17-1.5-3-1.22-1.22-4.72-1.5-18.5-1.5h-17c0.92-5.81 2.29-10.2 3.64-13.5 1.34-3.3 3.74-8.03 5.31-10.5 1.58-2.47 6.06-7.54 9.96-11.25 4.33-4.12 9.82-8.11 14.09-10.25 3.85-1.92 9.59-4.18 12.75-5.01 3.16-0.82 9.8-1.5 14.75-1.5 4.95 0 11.7 0.69 15 1.54 3.3 0.84 9.15 3.02 13 4.83 3.85 1.82 9.7 5.54 13 8.27 3.45 2.86 8.26 8.34 11.32 12.92 2.99 4.47 6.19 10.8 7.3 14.45 1.09 3.58 2.37 9.42 2.84 13 0.49 3.78 0.46 9.64-0.08 14-0.51 4.12-2.04 10.65-3.4 14.5-1.35 3.85-4.6 10.11-7.22 13.92-2.62 3.8-7.01 8.87-9.76 11.26-2.75 2.4-8.6 6.21-13 8.48-4.4 2.26-10.92 4.72-14.5 5.46-3.58 0.74-10.1 1.36-14.5 1.37-4.4 0.01-10.7-0.66-14-1.5-3.3-0.84-9.15-3.04-13-4.9-3.85-1.86-9.59-5.68-12.75-8.49-3.16-2.8-6.09-5.1-6.5-5.1-0.41-0.01-6.6 6.1-13.75 13.56l-13 13.57c5.42 5.53 10.83 9.68 15.5 12.79 4.67 3.11 12.1 7.15 16.5 8.98 4.4 1.84 11.37 4.26 15.5 5.39 6.05 1.67 10.59 2.08 23.5 2.13 13.53 0.05 17.39-0.3 25-2.23 4.95-1.26 12.6-3.87 17-5.8 4.4-1.93 11.15-5.62 14.99-8.2 3.85-2.58 9.87-7.39 13.39-10.69 3.52-3.3 8.31-8.47 10.65-11.5 2.33-3.03 6.09-8.88 8.33-13 2.25-4.13 5.41-11.32 7.02-16 1.61-4.67 3.42-11.99 4.02-16.25 0.61-4.26 1.1-11.13 1.1-15.25 0-4.13-0.49-10.99-1.1-15.25-0.6-4.26-2.41-11.58-4.02-16.25-1.61-4.67-4.77-11.88-7.02-16-2.24-4.13-5.99-9.98-8.33-13-2.33-3.03-7.12-8.16-10.64-11.4-3.51-3.25-9.09-7.72-12.39-9.95-3.3-2.22-9.6-5.72-14-7.77-4.4-2.06-11.6-4.66-16-5.79-4.4-1.13-11.15-2.51-15-3.06-3.85-0.54-9.92-0.95-13.5-0.91-3.58 0.05-9.88 0.66-14 1.37z"/>
</svg>